# Apple by Kenney (poly.pizza) - CC0 Public Domain
# Red body only: stem and leaf primitives removed.
# Origin moved to the mesh centre, and scaled so the bounding half-extent is 0.5,
# matching Unity's built-in sphere, so it drops in at scale 1 as a like-for-like swap.
o Apple_Red
g Apple_Red
v 0.161180 -0.399950 0.161180
v 0.161180 -0.399950 -0.161180
v 0.227943 -0.399950 0.000000
v -0.000000 -0.399950 0.227943
v -0.000000 -0.399950 -0.227943
v -0.161180 -0.399950 0.161180
v -0.161180 -0.399950 -0.161180
v -0.227943 -0.399950 0.000000
v -0.284436 -0.237133 0.284436
v -0.000000 -0.399950 0.227943
v -0.000000 -0.237133 0.402253
v -0.161180 -0.399950 0.161180
v -0.000000 -0.237133 0.402253
v 0.161180 -0.399950 0.161180
v 0.284436 -0.237133 0.284436
v -0.000000 -0.399950 0.227943
v 0.161180 -0.399950 -0.161180
v -0.000000 -0.237133 -0.402253
v 0.284436 -0.237133 -0.284436
v -0.000000 -0.399950 -0.227943
v -0.227943 -0.399950 0.000000
v -0.284436 -0.237133 -0.284436
v -0.161180 -0.399950 -0.161180
v -0.402253 -0.237133 0.000000
v 0.227943 -0.399950 0.000000
v 0.284436 -0.237133 -0.284436
v 0.402253 -0.237133 0.000000
v 0.161180 -0.399950 -0.161180
v -0.161180 -0.399950 -0.161180
v -0.000000 -0.237133 -0.402253
v -0.000000 -0.399950 -0.227943
v -0.284436 -0.237133 -0.284436
v -0.284436 -0.237133 0.284436
v -0.227943 -0.399950 0.000000
v -0.161180 -0.399950 0.161180
v -0.402253 -0.237133 0.000000
v 0.284436 -0.237133 0.284436
v 0.227943 -0.399950 0.000000
v 0.402253 -0.237133 0.000000
v 0.161180 -0.399950 0.161180
v 0.221996 0.399950 -0.221996
v 0.221996 0.399950 0.221996
v 0.313950 0.399950 0.000000
v 0.205592 0.399950 0.000000
v 0.145375 0.399950 -0.145375
v 0.145375 0.399950 0.145375
v 0.000000 0.399950 -0.313950
v 0.000000 0.399950 -0.205592
v -0.145375 0.399950 -0.145375
v 0.000000 0.399950 0.313950
v 0.000000 0.399950 0.205592
v -0.145375 0.399950 0.145375
v -0.221996 0.399950 -0.221996
v -0.221996 0.399950 0.221996
v -0.205592 0.399950 0.000000
v -0.313950 0.399950 0.000000
v -0.133635 0.349006 0.000000
v -0.145375 0.399950 0.145375
v -0.094494 0.349006 0.094494
v -0.205592 0.399950 0.000000
v -0.145375 0.399950 -0.145375
v 0.000000 0.349006 -0.133635
v 0.000000 0.399950 -0.205592
v -0.094494 0.349006 -0.094494
v -0.145375 0.399950 -0.145375
v -0.133635 0.349006 0.000000
v -0.094494 0.349006 -0.094494
v -0.205592 0.399950 0.000000
v -0.353553 0.102682 0.353553
v -0.455000 0.283880 0.000000
v -0.500000 0.102682 0.000000
v -0.321734 0.283880 0.321734
v -0.284436 -0.237133 -0.284436
v -0.500000 0.102682 0.000000
v -0.353553 0.102682 -0.353553
v -0.402253 -0.237133 0.000000
v 0.500000 0.102682 0.000000
v 0.284436 -0.237133 -0.284436
v 0.353553 0.102682 -0.353553
v 0.402253 -0.237133 0.000000
v -0.000000 0.102682 0.500000
v -0.284436 -0.237133 0.284436
v -0.000000 -0.237133 0.402253
v -0.353553 0.102682 0.353553
v 0.353553 0.102682 0.353553
v 0.402253 -0.237133 0.000000
v 0.500000 0.102682 0.000000
v 0.284436 -0.237133 0.284436
v -0.000000 0.283880 0.455000
v -0.353553 0.102682 0.353553
v -0.000000 0.102682 0.500000
v -0.321734 0.283880 0.321734
v -0.321734 0.283880 -0.321734
v -0.000000 0.102682 -0.500000
v -0.353553 0.102682 -0.353553
v -0.000000 0.283880 -0.455000
v 0.321734 0.283880 0.321734
v 0.500000 0.102682 0.000000
v 0.455000 0.283880 0.000000
v 0.353553 0.102682 0.353553
v -0.402253 -0.237133 0.000000
v -0.353553 0.102682 0.353553
v -0.500000 0.102682 0.000000
v -0.284436 -0.237133 0.284436
v 0.321734 0.283880 -0.321734
v 0.500000 0.102682 0.000000
v 0.353553 0.102682 -0.353553
v 0.455000 0.283880 0.000000
v -0.353553 0.102682 -0.353553
v -0.000000 -0.237133 -0.402253
v -0.284436 -0.237133 -0.284436
v -0.000000 0.102682 -0.500000
v -0.500000 0.102682 0.000000
v -0.321734 0.283880 -0.321734
v -0.353553 0.102682 -0.353553
v -0.455000 0.283880 0.000000
v 0.321734 0.283880 0.321734
v -0.000000 0.102682 0.500000
v 0.353553 0.102682 0.353553
v -0.000000 0.283880 0.455000
v -0.000000 0.102682 -0.500000
v 0.284436 -0.237133 -0.284436
v -0.000000 -0.237133 -0.402253
v 0.353553 0.102682 -0.353553
v 0.353553 0.102682 0.353553
v -0.000000 -0.237133 0.402253
v 0.284436 -0.237133 0.284436
v -0.000000 0.102682 0.500000
v -0.000000 0.283880 -0.455000
v 0.353553 0.102682 -0.353553
v -0.000000 0.102682 -0.500000
v 0.321734 0.283880 -0.321734
v 0.094494 0.349006 0.094494
v 0.000000 0.399950 0.205592
v 0.145375 0.399950 0.145375
v 0.000000 0.349006 0.133635
v -0.094494 0.349006 0.094494
v 0.000000 0.399950 0.205592
v 0.000000 0.349006 0.133635
v -0.145375 0.399950 0.145375
v 0.133635 0.349006 0.000000
v 0.145375 0.399950 0.145375
v 0.205592 0.399950 0.000000
v 0.094494 0.349006 0.094494
v 0.145375 0.399950 -0.145375
v 0.133635 0.349006 0.000000
v 0.205592 0.399950 0.000000
v 0.094494 0.349006 -0.094494
v 0.000000 0.399950 -0.205592
v 0.094494 0.349006 -0.094494
v 0.145375 0.399950 -0.145375
v 0.000000 0.349006 -0.133635
v 0.094494 0.349006 -0.094494
v 0.094494 0.349006 0.094494
v 0.133635 0.349006 0.000000
v 0.000000 0.349006 -0.133635
v 0.027415 0.349006 -0.027415
v -0.027415 0.349006 -0.027415
v 0.027415 0.349006 0.027415
v 0.000000 0.349006 0.133635
v -0.094494 0.349006 -0.094494
v -0.027415 0.349006 0.027415
v -0.094494 0.349006 0.094494
v -0.133635 0.349006 0.000000
v -0.221996 0.399950 0.221996
v -0.000000 0.283880 0.455000
v 0.000000 0.399950 0.313950
v -0.321734 0.283880 0.321734
v 0.313950 0.399950 0.000000
v 0.321734 0.283880 0.321734
v 0.455000 0.283880 0.000000
v 0.221996 0.399950 0.221996
v 0.221996 0.399950 0.221996
v -0.000000 0.283880 0.455000
v 0.321734 0.283880 0.321734
v 0.000000 0.399950 0.313950
v -0.000000 0.283880 -0.455000
v -0.221996 0.399950 -0.221996
v 0.000000 0.399950 -0.313950
v -0.321734 0.283880 -0.321734
v -0.321734 0.283880 -0.321734
v -0.313950 0.399950 0.000000
v -0.221996 0.399950 -0.221996
v -0.455000 0.283880 0.000000
v -0.000000 0.283880 -0.455000
v 0.221996 0.399950 -0.221996
v 0.321734 0.283880 -0.321734
v 0.000000 0.399950 -0.313950
v -0.313950 0.399950 0.000000
v -0.321734 0.283880 0.321734
v -0.221996 0.399950 0.221996
v -0.455000 0.283880 0.000000
v 0.321734 0.283880 -0.321734
v 0.313950 0.399950 0.000000
v 0.455000 0.283880 0.000000
v 0.221996 0.399950 -0.221996
vn 0.000000 -1.000000 0.000000
vn 0.000000 -1.000000 0.000000
vn 0.000000 -1.000000 0.000000
vn 0.000000 -1.000000 0.000000
vn 0.000000 -1.000000 0.000000
vn 0.000000 -1.000000 0.000000
vn 0.000000 -1.000000 0.000000
vn 0.000000 -1.000000 0.000000
vn -0.482674 -0.730788 0.482674
vn 0.000000 -0.730788 0.682604
vn 0.000000 -0.730788 0.682604
vn -0.482674 -0.730788 0.482674
vn 0.000000 -0.730788 0.682604
vn 0.482674 -0.730788 0.482674
vn 0.482674 -0.730788 0.482674
vn 0.000000 -0.730788 0.682604
vn 0.482674 -0.730788 -0.482674
vn 0.000000 -0.730788 -0.682604
vn 0.482674 -0.730788 -0.482674
vn 0.000000 -0.730788 -0.682604
vn -0.682604 -0.730788 0.000000
vn -0.482674 -0.730788 -0.482674
vn -0.482674 -0.730788 -0.482674
vn -0.682604 -0.730788 0.000000
vn 0.682604 -0.730788 0.000000
vn 0.482674 -0.730788 -0.482674
vn 0.682604 -0.730788 0.000000
vn 0.482674 -0.730788 -0.482674
vn -0.482674 -0.730788 -0.482674
vn 0.000000 -0.730788 -0.682604
vn 0.000000 -0.730788 -0.682604
vn -0.482674 -0.730788 -0.482674
vn -0.482674 -0.730788 0.482674
vn -0.682604 -0.730788 0.000000
vn -0.482674 -0.730788 0.482674
vn -0.682604 -0.730788 0.000000
vn 0.482674 -0.730788 0.482674
vn 0.682604 -0.730788 0.000000
vn 0.682604 -0.730788 0.000000
vn 0.482674 -0.730788 0.482674
vn 0.000000 1.000000 0.000000
vn 0.000000 1.000000 0.000000
vn 0.000000 1.000000 0.000000
vn 0.000000 1.000000 0.000000
vn 0.000000 1.000000 0.000000
vn 0.000000 1.000000 0.000000
vn 0.000000 1.000000 0.000000
vn 0.000000 1.000000 0.000000
vn 0.000000 1.000000 0.000000
vn 0.000000 1.000000 0.000000
vn 0.000000 1.000000 0.000000
vn 0.000000 1.000000 0.000000
vn 0.000000 1.000000 0.000000
vn 0.000000 1.000000 0.000000
vn 0.000000 1.000000 0.000000
vn 0.000000 1.000000 0.000000
vn 0.577823 0.816162 0.000000
vn 0.408583 0.816162 -0.408583
vn 0.408583 0.816162 -0.408583
vn 0.577823 0.816162 0.000000
vn 0.408583 0.816162 0.408583
vn 0.000000 0.816162 0.577823
vn 0.000000 0.816162 0.577823
vn 0.408583 0.816162 0.408583
vn 0.408583 0.816162 0.408583
vn 0.577823 0.816162 0.000000
vn 0.408583 0.816162 0.408583
vn 0.577823 0.816162 0.000000
vn -0.686260 0.241027 0.686260
vn -0.970518 0.241027 0.000000
vn -0.970518 0.241027 0.000000
vn -0.686260 0.241027 0.686260
vn -0.679552 -0.276439 -0.679552
vn -0.961031 -0.276439 0.000000
vn -0.679552 -0.276439 -0.679552
vn -0.961031 -0.276439 0.000000
vn 0.961031 -0.276439 0.000000
vn 0.679552 -0.276439 -0.679552
vn 0.679552 -0.276439 -0.679552
vn 0.961031 -0.276439 0.000000
vn 0.000000 -0.276439 0.961031
vn -0.679552 -0.276439 0.679552
vn 0.000000 -0.276439 0.961031
vn -0.679552 -0.276439 0.679552
vn 0.679552 -0.276439 0.679552
vn 0.961031 -0.276439 0.000000
vn 0.961031 -0.276439 0.000000
vn 0.679552 -0.276439 0.679552
vn 0.000000 0.241027 0.970518
vn -0.686260 0.241027 0.686260
vn 0.000000 0.241027 0.970518
vn -0.686260 0.241027 0.686260
vn -0.686260 0.241027 -0.686260
vn 0.000000 0.241027 -0.970518
vn -0.686260 0.241027 -0.686260
vn 0.000000 0.241027 -0.970518
vn 0.686260 0.241027 0.686260
vn 0.970518 0.241027 0.000000
vn 0.970518 0.241027 0.000000
vn 0.686260 0.241027 0.686260
vn -0.961031 -0.276439 0.000000
vn -0.679552 -0.276439 0.679552
vn -0.961031 -0.276439 0.000000
vn -0.679552 -0.276439 0.679552
vn 0.686260 0.241027 -0.686260
vn 0.970518 0.241027 0.000000
vn 0.686260 0.241027 -0.686260
vn 0.970518 0.241027 0.000000
vn -0.679552 -0.276439 -0.679552
vn 0.000000 -0.276439 -0.961031
vn -0.679552 -0.276439 -0.679552
vn 0.000000 -0.276439 -0.961031
vn -0.970518 0.241027 0.000000
vn -0.686260 0.241027 -0.686260
vn -0.686260 0.241027 -0.686260
vn -0.970518 0.241027 0.000000
vn 0.686260 0.241027 0.686260
vn 0.000000 0.241027 0.970518
vn 0.686260 0.241027 0.686260
vn 0.000000 0.241027 0.970518
vn 0.000000 -0.276439 -0.961031
vn 0.679552 -0.276439 -0.679552
vn 0.000000 -0.276439 -0.961031
vn 0.679552 -0.276439 -0.679552
vn 0.679552 -0.276439 0.679552
vn 0.000000 -0.276439 0.961031
vn 0.679552 -0.276439 0.679552
vn 0.000000 -0.276439 0.961031
vn 0.000000 0.241027 -0.970518
vn 0.686260 0.241027 -0.686260
vn 0.000000 0.241027 -0.970518
vn 0.686260 0.241027 -0.686260
vn -0.408583 0.816162 -0.408583
vn 0.000000 0.816162 -0.577823
vn -0.408583 0.816162 -0.408583
vn 0.000000 0.816162 -0.577823
vn 0.408583 0.816162 -0.408583
vn 0.000000 0.816162 -0.577823
vn 0.000000 0.816162 -0.577823
vn 0.408583 0.816162 -0.408583
vn -0.577823 0.816162 0.000000
vn -0.408583 0.816162 -0.408583
vn -0.577823 0.816162 0.000000
vn -0.408583 0.816162 -0.408583
vn -0.408583 0.816162 0.408583
vn -0.577823 0.816162 0.000000
vn -0.577823 0.816162 0.000000
vn -0.408583 0.816162 0.408583
vn 0.000000 0.816162 0.577823
vn -0.408583 0.816162 0.408583
vn -0.408583 0.816162 0.408583
vn 0.000000 0.816162 0.577823
vn 0.000000 1.000000 0.000000
vn 0.000000 1.000000 0.000000
vn 0.000000 1.000000 0.000000
vn 0.000000 1.000000 0.000000
vn 0.000000 1.000000 0.000000
vn 0.000000 1.000000 0.000000
vn 0.000000 1.000000 0.000000
vn 0.000000 1.000000 0.000000
vn 0.000000 1.000000 0.000000
vn 0.000000 1.000000 0.000000
vn 0.000000 1.000000 0.000000
vn 0.000000 1.000000 0.000000
vn -0.449309 0.772168 0.449309
vn 0.000000 0.772168 0.635419
vn 0.000000 0.772168 0.635419
vn -0.449309 0.772168 0.449309
vn 0.635419 0.772168 0.000000
vn 0.449309 0.772168 0.449309
vn 0.635419 0.772168 0.000000
vn 0.449309 0.772168 0.449309
vn 0.449309 0.772168 0.449309
vn 0.000000 0.772168 0.635419
vn 0.449309 0.772168 0.449309
vn 0.000000 0.772168 0.635419
vn 0.000000 0.772168 -0.635419
vn -0.449309 0.772168 -0.449309
vn 0.000000 0.772168 -0.635419
vn -0.449309 0.772168 -0.449309
vn -0.449309 0.772168 -0.449309
vn -0.635419 0.772168 0.000000
vn -0.449309 0.772168 -0.449309
vn -0.635419 0.772168 0.000000
vn 0.000000 0.772168 -0.635419
vn 0.449309 0.772168 -0.449309
vn 0.449309 0.772168 -0.449309
vn 0.000000 0.772168 -0.635419
vn -0.635419 0.772168 0.000000
vn -0.449309 0.772168 0.449309
vn -0.449309 0.772168 0.449309
vn -0.635419 0.772168 0.000000
vn 0.449309 0.772168 -0.449309
vn 0.635419 0.772168 0.000000
vn 0.635419 0.772168 0.000000
vn 0.449309 0.772168 -0.449309
f 1//1 2//2 3//3
f 2//2 1//1 4//4
f 2//2 4//4 5//5
f 5//5 4//4 6//6
f 5//5 6//6 7//7
f 7//7 6//6 8//8
f 9//9 10//10 11//11
f 10//10 9//9 12//12
f 13//13 14//14 15//15
f 14//14 13//13 16//16
f 17//17 18//18 19//19
f 18//18 17//17 20//20
f 21//21 22//22 23//23
f 22//22 21//21 24//24
f 25//25 26//26 27//27
f 26//26 25//25 28//28
f 29//29 30//30 31//31
f 30//30 29//29 32//32
f 33//33 34//34 35//35
f 34//34 33//33 36//36
f 37//37 38//38 39//39
f 38//38 37//37 40//40
f 41//41 42//42 43//43
f 42//42 41//41 44//44
f 44//44 41//41 45//45
f 46//46 42//42 44//44
f 45//45 41//41 47//47
f 45//45 47//47 48//48
f 48//48 47//47 49//49
f 42//42 46//46 50//50
f 50//50 46//46 51//51
f 50//50 51//51 52//52
f 49//49 47//47 53//53
f 50//50 52//52 54//54
f 49//49 53//53 55//55
f 54//54 52//52 55//55
f 54//54 55//55 53//53
f 54//54 53//53 56//56
f 57//57 58//58 59//59
f 58//58 57//57 60//60
f 61//61 62//62 63//63
f 62//62 61//61 64//64
f 65//65 66//66 67//67
f 66//66 65//65 68//68
f 69//69 70//70 71//71
f 70//70 69//69 72//72
f 73//73 74//74 75//75
f 74//74 73//73 76//76
f 77//77 78//78 79//79
f 78//78 77//77 80//80
f 81//81 82//82 83//83
f 82//82 81//81 84//84
f 85//85 86//86 87//87
f 86//86 85//85 88//88
f 89//89 90//90 91//91
f 90//90 89//89 92//92
f 93//93 94//94 95//95
f 94//94 93//93 96//96
f 97//97 98//98 99//99
f 98//98 97//97 100//100
f 101//101 102//102 103//103
f 102//102 101//101 104//104
f 105//105 106//106 107//107
f 106//106 105//105 108//108
f 109//109 110//110 111//111
f 110//110 109//109 112//112
f 113//113 114//114 115//115
f 114//114 113//113 116//116
f 117//117 118//118 119//119
f 118//118 117//117 120//120
f 121//121 122//122 123//123
f 122//122 121//121 124//124
f 125//125 126//126 127//127
f 126//126 125//125 128//128
f 129//129 130//130 131//131
f 130//130 129//129 132//132
f 133//133 134//134 135//135
f 134//134 133//133 136//136
f 137//137 138//138 139//139
f 138//138 137//137 140//140
f 141//141 142//142 143//143
f 142//142 141//141 144//144
f 145//145 146//146 147//147
f 146//146 145//145 148//148
f 149//149 150//150 151//151
f 150//150 149//149 152//152
f 153//153 154//154 155//155
f 154//154 153//153 156//156
f 154//154 156//156 157//157
f 157//157 156//156 158//158
f 159//159 154//154 157//157
f 154//154 159//159 160//160
f 158//158 156//156 161//161
f 160//160 159//159 162//162
f 158//158 161//161 162//162
f 160//160 162//162 163//163
f 163//163 162//162 161//161
f 163//163 161//161 164//164
f 165//165 166//166 167//167
f 166//166 165//165 168//168
f 169//169 170//170 171//171
f 170//170 169//169 172//172
f 173//173 174//174 175//175
f 174//174 173//173 176//176
f 177//177 178//178 179//179
f 178//178 177//177 180//180
f 181//181 182//182 183//183
f 182//182 181//181 184//184
f 185//185 186//186 187//187
f 186//186 185//185 188//188
f 189//189 190//190 191//191
f 190//190 189//189 192//192
f 193//193 194//194 195//195
f 194//194 193//193 196//196
